<svg fill="none" viewBox="0 0 362 394" width="300" id="shirt" class="text-bkg " astro-icon="shirt"><g clip-path="url(#astroicon:shirta)"><path fill="currentColor" d="m138.634 2.31 9.891 18.479c9.231 8.14 19.451 16.939 31.649 20.459 11.539-1.76 23.078-6.16 30.66-13.2L228.967 7.59l-39.891 5.61-32.639-2.31-17.803-8.58Z"></path><path fill="currentColor" d="m2.478 197.495 10.385-51.477 20.77-82.166c10.55-10.56 16.154-29.039 31.65-31.679l72.199-25.738 23.737 28.708 22.418 6.6c19.287-8.25 35.936-15.18 46.815-35.803l84.069 38.608 41.539 152.947-47.474 17.324-24.726 2.475 1.978 62.862-4.945 39.598.989 45.042-93.959 26.729-115.718-11.879-3.956-78.206c.66-25.739 1.32-51.478 1.978-77.216 2.143-14.85-52.582-12.375-67.749-26.729Z"></path><path fill="#000" fill-opacity=".071" d="M138.723 4.68c-1.604-.008-8.285 3.516-11.435 6.032-1.784 1.425-20.447 8.548-33.272 12.7-14.506 4.694-18.665 5.84-26.442 7.316-12.174 2.31-19.111 7.656-24.726 19.04-1.59 3.225-3.478 8.388-4.188 11.478-.71 3.09-1.63 5.97-2.04 6.388-.41.42-.741 2.251-.741 4.084 0 3.2-.34 3.883-5.208 10.487-.686.93-1.533 4.078-1.886 7.007-.465 3.867-1.138 5.88-2.488 7.316-1.56 1.663-1.98 3.307-2.596 10.241-.794 8.947-1.17 10.488-6.645 27.919-4.215 13.418-7.667 26.648-9.968 38.113-1.758 8.758-3.215 21.686-2.673 23.805.187.734 1.845 1.885 3.678 2.553l7.819 2.846c13.81 5.026 18.232 5.878 32.221 6.202l13.46.31 2.813 2.815c2.453 2.455 3.302 2.815 6.784 2.815 2.19 0 3.988.257 3.987.588-.002 1.622-4.288 17.665-5.192 19.443-1.632 3.209-2.219 13.39-1.144 19.69 1.441 8.448 1.256 11.33-1.251 19.645-2.659 8.813-2.4 11.721 1.916 21.562 2.875 6.557 3.049 9.792.85 15.375-1.831 4.65-2.055 8.944-.603 11.493.681 1.195 1.151 8 1.484 21.408.492 19.871 1.931 31.145 4.265 33.549.776.8 2.11.874 5.749.294 5.351-.853 23.274.071 29.594 1.532 2.206.51 8.353 2.136 13.646 3.604 9.641 2.673 23.642 5.632 29.655 6.264 1.765.185 10.979.241 20.461.124 13.967-.173 18.833-.553 25.653-1.965 14.258-2.95 21.398-5.22 36.935-11.771 17.093-7.207 29.612-11.026 39.469-12.033 4.03-.412 5.643-.931 6.212-1.996 1.022-1.91.982-19.085-.062-26.976-.457-3.453-1.59-8.494-2.519-11.199l-1.684-4.903 2.951-6.899c5.702-13.287 6.536-23.779 2.365-29.931-1.554-2.292-1.906-3.55-1.499-5.444 4.727-22.029 5.475-40.518 2.318-57.358l-.51-2.707 5.517.619c9.966 1.127 14.214-.005 19.039-5.089 1.732-1.826 3.303-2.564 6.413-2.985 9.803-1.327 22.691-4.678 32.994-8.585 9.574-3.631 9.401-3.329 6.831-11.818-.873-2.881-2.704-9.22-4.065-14.076-3.281-11.71-8.014-26.986-12.919-41.671-3.591-10.749-3.95-12.456-3.477-16.535.671-5.789-.556-10.373-3.477-12.978-2.109-1.88-2.335-2.613-2.828-9.559-.506-7.112-3.613-21.611-5.332-24.826-.433-.81-.788-2.373-.788-3.48 0-1.107-.971-4.617-2.148-7.796-3.245-8.762-9.366-14.925-19.858-20-4.441-2.148-12.946-5.567-18.9-7.61-32.339-11.098-38.806-13.744-46.918-19.134-3.791-2.519-4.945-2.934-6.32-2.273-7.229 3.472-27.976 6.558-44.121 6.558-16.17 0-27.507-2.236-39.345-7.75-2.205-1.027-4.825-1.867-5.81-1.871l-.001.002Zm-1.081 3.201c.463 0 1.565 1.406 2.441 3.125 2.891 5.67 11.426 16.227 16.52 20.433 9.977 8.236 21.627 12.142 30.583 10.24 9.677-2.055 18.089-6.35 26.566-13.55 4.191-3.56 12.11-12.347 14.65-16.241l1.298-1.965 3.322 2.197c1.828 1.21 3.323 2.568 3.323 3.016 0 1.91-5.032 10.536-9.179 15.746-8.498 10.676-19.59 17.167-34.122 19.97-17.624 3.399-33.995-1.793-47.999-15.236-7.508-7.207-15.346-18.655-15.346-22.413 0-1.13 6.259-5.321 7.943-5.321Zm103.864 9.622c.121 0 2.711 1.036 5.749 2.289 3.037 1.253 7.692 3.022 10.338 3.944 2.646.922 11.624 4.038 19.951 6.93 17.823 6.19 26.803 10.37 31.835 14.803 3.89 3.427 8.016 10.361 9.504 15.963 1.017 3.827.709 4.665-5.054 13.812l-3.245 5.151-1.113-2.753c-1.733-4.293-3.27-5.553-6.706-5.553-2.461 0-3.716.604-6.275 3.016-3.688 3.477-4.441 5.838-7.217 22.66-.983 5.959-1.929 10.984-2.101 11.168-.173.184-.309-4.615-.309-10.673 0-18.963-3.276-36.613-6.785-36.613-2.006 0-2.969 16.217-1.839 30.906.473 6.142.988 12.487 1.793 22.073 1.915 22.813 1.182 45.969-2.056 64.995-2.499 14.693-3.134 16.925-16.798 58.115-6.165 18.584-11.569 34.901-12.007 36.257-.964 2.977-1.054 6.759-.155 6.759 1.651 0 6.082-6.112 16.876-23.279l1.761-2.8-.54 2.398c-.883 3.865-4.598 14.264-10.169 28.492-5.976 15.263-9.395 22.744-13.135 28.708-2.928 4.667-3.278 6.418-1.422 7.131 2.178.836 4.449-2.284 10.029-13.767 6.325-13.014 10.536-23.646 19.565-49.358 1.472-4.193 2.933-8.248 3.245-9.018.683-1.685 2.009-1.086 2.009.913 0 .786 1.143 3.71 2.534 6.496 2.748 5.504 2.748 5.655-.092 19.676-1.413 6.973-17.912 37.819-31.047 58.065-4.463 6.88-5.057 9.343-2.256 9.343 1.109 0 2.971-2.069 6.119-6.822 6.501-9.811 17.613-29.077 24.155-41.871 3.103-6.07 5.923-10.866 6.258-10.658 1.25.773 1.646 6.87.742 11.369-1.891 9.411-6.813 21.194-11.142 26.714-5.907 7.531-12.46 14.514-16.659 17.757-3.168 2.446-4.285 3.827-4.111 5.043.132.918.79 1.776 1.453 1.902 1.832.349 10.858-7.606 18.019-15.87l6.398-7.394.927 2.29c1.479 3.703 2.871 17.735 2.581 25.971l-.262 7.625-2.411.217c-10.567.942-25.903 5.555-43.301 13.023-11.603 4.981-24.269 8.917-36.116 11.215-9.878 1.915-34.028 2.809-44.476 1.655-8.417-.93-21.47-3.683-30.459-6.435-10.044-3.075-19.702-4.828-26.751-4.841-3.149-.006-6.459-.21-7.34-.449-2.033-.549-13.013-22.022-12.055-23.573.942-1.525 6.098-.683 21.28 3.496 10.848 2.985 28.302 7.37 34.879 8.755 5.416 1.14 9.485 1.94 18.854 3.697 10.763 2.018 41.967 4.889 52.913 4.872 7.824-.012 25.128-2.057 27.323-3.233 1.296-.694 1.49-1.153.788-1.856-1.08-1.081-10.421-.893-14.558.294-3.678 1.056-11.883.988-16.551-.139-12.595-3.042-36.671-12.043-54.209-20.264-4.341-2.034-8.038-3.696-8.222-3.696-.736 0-16.08-9.126-21.45-12.761-8.801-5.958-18.445-16.596-24.478-26.976a5871.78 5871.78 0 0 0-9.38-16.072c-10.185-17.367-13.127-30.054-6.97-30.054 1.738 0 3.698 1.521 9.04 7.038 5.655 5.841 7.96 9.092 13.537 19.056 8.55 15.278 15.673 26.014 22.47 33.891 5.705 6.611 8.902 8.334 8.902 4.795 0-1.066-.78-2.624-1.716-3.465-2.075-1.864-8.716-10.411-8.716-11.214 0-.318 1.888 1.214 4.204 3.403 19.127 18.082 50.807 33.155 80.389 38.252 19.742 3.402 21.249 3.516 21.249 1.732 0-.662-.189-1.206-.417-1.206-1.482 0-13.311-3.568-16.35-4.934-9.318-4.189-16.645-8.208-18.112-9.931-.882-1.036-4.13-3.574-7.217-5.645-29.262-19.63-63.956-59.561-82.229-94.649-2.759-5.298-5.806-10.412-6.784-11.369-3.654-3.575-11.074-30.793-14.728-54.047-5.09-32.393-6.014-72.692-2.642-114.74.497-6.2.72-6.884 2.55-7.765 1.102-.531 11.193-3.95 22.439-7.595 11.245-3.644 21.95-7.282 23.783-8.09 1.833-.807 3.827-1.27 4.42-1.02.593.249 2.627 2.406 4.528 4.779 4.205 5.25 12.545 12.118 18.869 15.545 10.395 5.634 23.449 8.094 34.77 6.543 20.842-2.855 36.301-13.437 47.274-32.328 1.987-3.42 3.711-6.218 3.832-6.218l-.001.002ZM62.583 55.755c1.123-.198 1.175 1.214.031 4.13-1.414 3.604-3.275 4.347-5.162 2.073-.927-1.12-.651-1.657 1.994-4.084 1.408-1.292 2.463-2 3.137-2.12Zm-8.19 9.9c.352 0 1.592.827 2.75 1.825l2.103 1.81-1.221 5.212c-.67 2.865-1.422 6.558-1.685 8.214-.263 1.655-.762 3.016-1.097 3.016-.756 0-5.733-5.09-5.733-5.863 0-.31.498-.557 1.112-.557 1.524 0 2.134-1.86 2.674-8.228.252-2.98.745-5.43 1.097-5.43Zm266.932 7.223c1.052 0 3.234 10.261 4.312 20.263.927 8.597 1.187 9.509 3.137 11.044 2.761 2.174 3.756 5.93 2.936 11.122-.576 3.651-.314 5.13 2.179 12.359 7.287 21.125 17.245 54.571 16.474 55.298-.821.775-7.658 2.771-21.744 6.358-6.798 1.731-12.841 3.155-13.429 3.155-1.309 0-1.371-4.026-.309-20.603.419-6.546.948-29.884 1.174-51.849l.418-39.938 2.101-3.604c1.161-1.982 2.399-3.604 2.751-3.604v-.001Zm-18.668 4.176c2.056.015 2.633 1.28 2.535 4.656-.069 2.378-.877 3.547-5.239 7.595l-5.146 4.78.51-3.573c.28-1.969.797-4.662 1.159-5.987.362-1.324.88-3.384 1.143-4.578.38-1.721 1.081-2.293 3.369-2.723a8.795 8.795 0 0 1 1.669-.17ZM46.911 85.81c.56-.004 1.725.88 4.018 2.94l4.234 3.805-.927 3.201c-.953 3.327-.678 20.136.835 51.369.406 8.387 1.12 24.383 1.576 35.545.456 11.162 1.033 20.618 1.283 21.021.249.403-.263 1.114-1.129 1.578-3.84 2.057-26.858-.258-29.068-2.924-.52-.626-.927-2.83-.912-4.903.016-2.262-.472-4.337-1.205-5.182-1.04-1.197-1.071-1.909-.216-4.81 2.096-7.114 8.034-14.175 16.334-19.428 2.561-1.621 4.857-3.466 5.1-4.099 1.06-2.766-.933-5.881-8.546-13.303l-7.943-7.734.834-3.093c.46-1.704 1.887-6.861 3.168-11.462 1.282-4.601 2.334-9.307 2.334-10.456 0-3.057 2.117-5.59 6.104-7.301 3.919-1.681 4.378-3.178 2.256-7.286-1.133-2.193-1.125-3.058-.015-8.986.676-3.61 1.328-7.186 1.452-7.95.056-.343.178-.54.433-.542Zm264.306 2.444a.21.21 0 0 1 .155.062c.682.683-1.365 104.658-2.117 107.504-.857 3.242-4.203 6.499-8.561 8.321-1.545.646-3.502 1.176-4.358 1.176-1.522 0-1.55-.608-1.02-25.491.461-21.689.778-26.37 2.132-31.493 2.44-9.227 3.515-13.617 4.621-18.871.557-2.648 1.288-5.899 1.638-7.224.35-1.324 1.234-5.829 1.963-10.023.728-4.193 1.671-9.147 2.086-10.998.415-1.85.757-4.475.757-5.846 0-2.247 1.896-7.09 2.705-7.116h-.001Zm-6.537 2.692-.448 2.413c-.248 1.324-.679 4.03-.958 6.017-.913 6.508-6.534 33.702-7.078 34.246-.172.172-.53-.797-.803-2.165-.274-1.369-.859-2.268-1.298-1.996-.439.272-1.137 1.65-1.546 3.063-.981 3.398-1.088-13.474-.139-21.671.584-5.042 1.125-6.435 4.281-10.843 1.99-2.779 4.609-5.95 5.811-7.053l2.179-2.01-.001-.001Zm46.748 96.985c.709-.055 1.193.483 1.483 1.64.27 1.076.7 2.497.959 3.171.31.81-.32 1.634-1.855 2.428-3.84 1.988-16.912 6.12-25.869 8.183-9.658 2.224-12.827 2.441-12.827.866 0-.601.224-2.71.494-4.687.444-3.24.669-3.557 2.365-3.233 1.753.336 11.298-1.416 16.783-3.078 1.323-.401 5.659-1.647 9.628-2.784 3.969-1.137 7.81-2.252 8.53-2.46.111-.031.208-.038.309-.046Zm-286.387.634c.017-.007.027-.002.047.016.309.285 1.829 4.972 3.384 10.425s3.028 10.55 3.26 11.323c.301.998-.03 1.407-1.127 1.407-2.852 0-4.398-1.899-4.606-5.661-.108-1.962-.482-6.824-.834-10.797-.33-3.724-.374-6.602-.124-6.713Zm243.101 17.402c.24-.035.371-.008.371.092 0 1.287-4.131 5.702-6.475 6.915-2.713 1.404-6.838 1.536-7.634.247-.632-1.023 1.735-3.093 3.539-3.093.633 0 3.266-1.08 5.857-2.398 1.942-.988 3.625-1.66 4.342-1.763ZM75.921 225.038c.194.016.389.441.68 1.144 1.29 3.121 4.024 10.636 4.59 12.637.28.994.386 1.797.246 1.779-.14-.017-1.994-1.64-4.126-3.604l-3.879-3.573 1.175-4.625c.684-2.7.99-3.786 1.314-3.759v.001Zm13.321 20.139c.304.103 1.728 2.248 3.6 5.476 10.985 18.935 21.724 31.584 36.858 43.403 8.649 6.754 15.237 13.196 15.237 14.911 0 3.118-7.257.645-17.417-5.94-8.086-5.241-12.007-9.66-19.178-21.562a2683.318 2683.318 0 0 0-9.843-16.21c-3.251-5.287-8.119-15.698-9.273-19.815-.058-.206-.055-.286.016-.263Zm-20.553 35.174 1.514 3.62c8.886 21.242 19.958 39.099 28.45 45.878 3.495 2.789 25.738 14.299 27.647 14.307.798.004 11.372 4.349 14.357 5.894 1.31.678 2.857 1.799 3.43 2.49 1.506 1.815.344 1.556-11.977-2.552-9.499-3.168-31.609-12.501-46.314-19.567-5.4-2.595-10.303-4.718-10.895-4.718-.592 0-1.75-2.005-2.58-4.455-1.51-4.444-1.518-4.468.262-9.435 2.473-6.902 2.31-11.288-.65-17.618-1.336-2.859-2.602-7.135-2.827-9.513l-.418-4.331Zm5.162 49.358c.195 0 4.995 2.271 10.662 5.043l16.32 7.982c6.95 3.396 6.835 3.44-2.813 1.051-10.865-2.689-17.516-3.81-20.955-3.511l-3.091.279-.247-5.43c-.13-2.979-.073-5.414.123-5.414Z"></path><path fill="#000" d="M139.678.008c-.168-.008-.342.004-.526.015h-.03c-.142 0-.307.03-.48.062-.019.004-.042-.004-.061 0-2.204.35-5.485 1.933-11.034 5.198C117.116 11.419 84.402 23 68.481 26.195c-9.199 1.846-15.092 4.26-19.95 8.167-3.707 2.981-9.305 11.127-11.776 17.139-2.536 6.168-5.826 17.614-5.826 20.247 0 1.457-1.05 3.707-2.735 5.893-2.853 3.7-4.474 8.222-4.482 12.483-.002 1.38-.507 2.934-1.128 3.45-2.449 2.034-3.778 6.591-4.11 14.091-.268 6.029-1 9.582-3.54 17.433-7.139 22.064-12.089 41.172-13.275 51.2-.168 1.427-.434 5.164-.664 9.311l-.031.526c-.12 1.816-.234 3.62-.294 5.275-.068 1.91-.102 3.403-.123 4.671-.049 2.886.042 4.362.37 5.212.006.019.01.044.016.062.527 1.787 1.658 2.217 3.786 2.661 1.403.292 4.529 1.367 6.954 2.382 4.505 1.885 12.796 4.468 19.256 6.017 1.984.476 9.19 1.076 16.025 1.33 11.62.432 12.57.583 14.465 2.351 1.115 1.041 3.23 2.319 4.698 2.831.788.275 1.34.468 1.715.711.006.004.01.012.016.016.227.175.399.391.54.634.212.536.104 1.333-.123 2.753-.28 1.754-1.26 5.228-2.179 7.719-.918 2.491-2.002 6.694-2.426 9.343-.846 5.282-.295 15.988 1.066 20.556.715 2.399.587 3.661-.726 7.224-4.204 11.404-4.017 19.158.68 29.095 2.755 5.829 2.872 7.936.726 12.947-1.809 4.223-2.102 10.864-.603 13.503.68 1.196 1.15 8.124 1.484 21.81.413 16.935.76 21.239 2.287 27.579 1.446 6.003 1.984 8.577 4.683 9.59l.046.016c.763.379 1.68.531 2.813.51 2.113.144 4.979.016 9.071-.139 14.539-.552 22.245.401 36.935 4.548 11.102 3.134 16.264 4.227 25.869 5.522.907.122 2.576.246 4.652.355.506.11.864.215.927.279.26.26 5.637.272 12.58.154h.185c1.235.019 2.479.023 3.709.031 28.644.199 41-2.209 68.15-13.302 21.135-8.635 28.43-10.823 40.628-12.189 3.541-.396 6.801-1.069 7.232-1.5 3.541-3.545 2.628-35.32-1.283-44.687-1.118-2.679-1.054-3.145 1.098-8.368 4.022-9.764 5.152-14.546 5.146-21.764-.006-5.532-.35-7.498-1.839-10.379-2.026-3.917-2.006-4.829.432-17.309 1.069-5.468 1.43-11.464 1.468-24.64l.047-17.355.772-.046h4.142c5.852 0 10.104-1.607 13.924-5.275 2.491-2.391 3.81-2.89 11.76-4.392 15.841-2.994 34.948-9.483 38.202-12.978.396-.426.685-.777.881-1.191l.015-.031c.314-.475.464-.948.464-1.423 0-.383-.173-1.312-.449-2.552-.214-1.348-.558-3.099-1.05-5.569-1.466-7.345-12.465-43.671-18.221-60.184-2.444-7.014-2.731-8.646-2.287-12.885.615-5.862-.46-10.261-3.523-14.493-1.768-2.442-2.388-4.398-2.797-8.755-.974-10.356-7.136-34.56-10.478-41.145-6.107-12.033-15.232-17.573-46.841-28.414-22.657-7.771-31.781-11.535-38.016-15.716-3.209-2.151-6.483-4.161-7.279-4.455-.828-.304-3.399.287-6.011 1.377-9.007 3.758-24.151 6.044-40.257 6.079-17.212.037-26.615-2.106-43.054-9.807a3.507 3.507 0 0 0-1.345-.324l.003-.003Zm-1.546 6.96c.006.003.01-.002.016 0 .005.003.01.013.015.016l3.833 6.589c4.842 8.342 16.295 19.971 23.258 23.635 2.654 1.397 7.521 3.163 10.817 3.913 5.187 1.181 6.688 1.221 11.204.34 6.359-1.24 13.495-4.356 19.766-8.646 4.644-3.177 16.423-14.838 20.414-20.201l2.071-2.769 3.724 2.367c2.312 1.462 3.739 2.953 3.74 3.898.002 2.183-4.837 10.49-9.381 16.102-8.529 10.535-19.611 17.215-33.318 20.077-24.539 5.124-50.589-8.196-62.898-32.158-3.534-6.88-3.426-7.32 2.658-10.828l4.08-2.335h.001Zm6.367 3.372c.691.042 3.125.766 5.888 1.764 9.971 3.6 14.509 4.585 26.38 4.795 4.609.48 7.559.48 13.213 0 13.025-.233 21.508-1.272 29.362-3.527 1.493-.428 2.856-.637 3.029-.464.173.173-1.97 2.725-4.76 5.662-5.141 5.41-5.465 5.569-14.696 7.672-4.879 1.11-24.901 1.585-31.603.742-3.269-.411-8.876-1.656-12.471-2.753-6.52-1.99-6.558-2-10.71-7.75-2.289-3.17-4.002-5.924-3.817-6.11.023-.023.087-.036.186-.03h-.001Zm-19.827 4.687c.006 0 .009.015.016.016l3.415 6.558c2.73 5.252 5.202 8.382 12.255 15.483 7.199 7.25 10.026 9.502 15.253 12.158 15.882 8.071 30.732 9.282 47.056 3.836 14.831-4.948 27.688-16.348 35.559-31.54 1.588-3.065 2.571-4.172 3.493-3.882.707.223 4.727 1.748 8.916 3.372 4.19 1.624 15.327 5.608 24.758 8.863 31.384 10.833 38.795 16.007 43.409 30.302l1.561 4.81c.01.169.016.342.015.496 0 .115-.027.252-.061.417l-3.539 6.342c-2.068 3.687-4.614 7.741-5.657 9.018-1.845 2.259-1.903 2.276-1.931.48-.033-2.072-2.179-6.679-3.539-7.58-1.407-.931-5.696-.703-6.754.356-2.015 2.017-1.097 3.092 2.179 2.568 2.63-.421 3.265-.235 4.003 1.144 1.318 2.466 1.134 8.167-.263 8.167-.626 0-3.291 2.376-5.919 5.29-2.627 2.915-4.971 4.993-5.207 4.61-.422-.683.197-4.328 2.225-13.117.56-2.428.842-4.698.634-5.058-.906-1.56-3.162 2.192-4.111 6.837-2.422 11.857-2.79 14.174-3.802 23.789-.447 4.253-1.788 36.726-2.72 65.926-.443 13.905-1.079 27.633-1.421 30.503-.357 2.985-3.583 13.965-7.542 25.677-3.805 11.256-8.084 24.077-9.504 28.491-6.235 19.38-17.126 46.101-22.47 55.131-1.744 2.946-3.168 5.578-3.168 5.862 0 .285.768.404 1.715.263 3.809-.567 14.843-25.315 27.122-60.852.991-2.869 3.009-8.282 4.481-12.034 1.473-3.752 3.824-10.154 5.223-14.23 1.401-4.077 2.858-7.217 3.246-6.977.989.612.878 22.526-.155 30.797-2.302 18.431-3.821 23.764-10.478 36.783-6.467 12.649-13.946 25.744-22.948 40.17-3.537 5.667-4.92 8.564-4.358 9.126.452.453 1.196.592 1.653.31 2.094-1.295 21.318-34.148 29.594-50.567 4.733-9.388 5.338-10.225 6.321-8.879 1.808 2.475 1.698 10.234-.232 17.231-2.033 7.371-6.757 17.808-10.168 22.475-1.775 2.428-7.156 8.297-11.962 13.04-8.367 8.257-10.587 11.962-5.316 8.847 2.581-1.525 14.496-13.569 19.271-19.474l2.921-3.619.896 2.289c1.608 4.154 2.854 15.193 3.168 23.929v.216c-.006.668-.029 1.331-.046 1.996l-.201 7.687v.016c-.15.934-.355 1.577-.618 1.84-.529.53-2.173.959-3.647.959-7.514 0-22.405 4.501-41.896 12.653-17.894 7.484-32.097 11.306-48.246 13.008-6.995.738-23.173.899-29.532.294-10.233-.973-23.502-3.724-36.209-7.502-10.239-3.044-24.197-4.915-35.42-4.748-4.775.071-8.983-.188-9.349-.573-1.545-1.626-3.195-16.872-3.508-32.436-.268-13.3-.614-17.281-1.793-20.603-.69-1.945-1.055-2.997-1.05-4.099.005-.156.019-.321.03-.48.003-.036.013-.072.016-.108.123-1.058.56-2.323 1.329-4.516 2.488-7.092 2.298-11.304-.804-17.99-3.496-7.537-3.582-13.978-.309-23.774l2.334-7.007-1.33-5.553c-1.966-8.157-1.74-16.264.665-23.852 1.102-3.475 2.218-7.498 2.488-8.94.57-3.041 1.55-3.413 2.164-.82 1.192 5.033 10.43 30.207 13.94 37.989 6.958 15.429 19.56 37.174 28.11 48.493 3.565 4.719 10.558 12.034 11.497 12.034 1.729 0 .471-2.624-3.353-6.977-2.252-2.564-5.637-6.817-7.511-9.466-8.357-11.813-24.934-43.518-31.479-60.199-2.685-6.844-7.832-22.575-12.61-38.515-1.191-3.973-2.48-8.131-2.86-9.234-2.792-8.138-6.912-33.02-6.103-36.876.237-1.132-.072-5.126-.68-8.879-2.933-18.079-3.472-37.59-1.53-54.57 2.153-18.83 2.22-22.406.556-26.868-1.141-3.06-2.335-4.55-5.084-6.373-1.975-1.309-3.866-2.857-4.22-3.434-.942-1.543-4.399-1.268-5.3.418-.428.801-.9 3.78-1.05 6.62-.15 2.84-.623 5.137-1.052 5.12-1.21-.05-7-10.09-7-12.142 0-2.812 3.36-10.583 6.769-15.67 4.863-7.256 9.35-10.08 19.503-12.28 14.607-3.166 40.942-11.545 52.681-16.768l4.574-2.042.001-.002Zm35.883 13.798c.326-.016.956.088 1.948.262 1.504.265 3.989.89 5.532 1.377 4.089 1.292 29.297 1.186 33.133-.14 1.684-.58 3.252-.875 3.477-.649.588.589-6.213 4.444-11.157 6.326-4.857 1.85-14.027 2.544-18.545 1.408-3.87-.973-11.957-5.232-13.8-7.27-.832-.92-1.129-1.289-.587-1.315h-.001ZM54.278 65.715c2.001.076 6.14 4.747 7.109 8.214.932 3.332.604 12.394-.556 15.422-.225.585-.644 1.06-.928 1.051-1.465-.043-8.214-5.045-10.415-7.718-3.108-3.774-3.284-5.334-.526-4.64 2.396.601 2.673.05 3.446-6.884.313-2.797.99-5.229 1.5-5.398.112-.037.237-.051.37-.046Zm267.165 5.94c.288.017.473.45.742 1.16 1.497 3.965 3.74 15.789 4.28 22.584.503 6.322.764 7.177 2.828 9.018 2.839 2.531 3.454 4.885 2.89 11.106-.4 4.423-.022 6.1 3.941 17.772 3.799 11.19 15.339 48.694 15.515 50.394-.006.046-.002.092-.015.139-.657.723-11.257 4.156-17.602 5.677a452.685 452.685 0 0 0-8.021 1.995c-1.543.41-4.519 1.175-6.614 1.702-3.913.983-5.319 3.155-2.04 3.155 2.316 0 16.575-3.517 26.596-6.558 4.353-1.321 8.172-2.099 8.5-1.733.328.367 1.026 1.936 1.545 3.481.842 2.508.76 2.947-.711 4.145-2.238 1.824-16.913 6.638-27.677 9.08-4.852 1.1-9.829 2.007-11.065 2.011l-2.257.015.433-6.62c1.013-15.704 1.519-35.012 1.978-76.058l.495-43.527c.082-.194.175-.396.278-.619l2.843-4.362c1.888-2.876 2.657-3.988 3.138-3.96v.003ZM37.944 72.77c.332 0 1.494 1.711 2.596 3.805 2.004 3.807 10.62 12.657 16.582 17.046l3.153 2.336-.696 6.666c-.778 7.36-.126 33.736 1.067 43.172.418 3.31 1.078 10.719 1.483 16.458.405 5.738 1.114 12.603 1.56 15.251.952 5.633 5.035 21.602 7.403 28.94.908 2.813 1.424 5.486 1.144 5.94-1.077 1.745-3.98.715-6.908-2.459-3.252-3.526-3.679-3.631-11.56-2.707-.414.048-.85.089-1.282.124l-3.57-.031c-1.827-.021-3.364-.05-4.775-.078-9.483-.826-21.11-3.863-32.87-8.724-3.952-1.633-4.845-2.366-5.054-4.083-.15-1.229.202-2.257.85-2.506.606-.233 4.825.872 9.38 2.459 5.9 2.056 8.536 2.64 9.15 2.027 1.56-1.563-2.045-3.958-10.216-6.806-4.027-1.404-7.435-2.655-8.005-2.939a2.065 2.065 0 0 1-.154-.294c-.022-2.03 2.76-17.176 4.528-24.486 2.207-9.127 8.568-30.815 10.4-35.468 1.77-4.496 3.952-16.464 3.956-21.686.002-2.816.505-4.339 1.993-6.11 2.644-3.144 3.632-5.955 3.632-10.332 0-2.991.486-4.212 2.797-6.915 1.986-2.321 2.813-4.054 2.813-5.94 0-1.465.271-2.66.603-2.66Zm273.841 14.463c.055.006.1.022.139.061.591.592-.973 102.787-1.638 107.054-.74 4.743-2.453 7.124-7.233 10.023-3.307 2.006-5.516 2.7-9.643 3.032l-5.346.433.54-3.125c1.102-6.338 2.088-35.952 2.04-61.317-.047-24.824.672-35.895 2.566-39.475 1.462-2.763 10.398-13.503 11.235-13.503.578 0 .688 1.414.34 4.223-1.533 12.365-7.452 40.689-9.597 45.939-.541 1.325-1.649 5.026-2.473 8.229-1.204 4.685-1.308 6.018-.494 6.822.808.797 1.217.728 2.04-.387.847-1.148 4.132-13.594 8.515-32.313 1.255-5.362 2.963-14.871 3.971-22.073.526-3.752 1.104-7.547 1.283-8.43.379-1.863 2.923-5.292 3.755-5.197v.004ZM308.4 205.189c2.929 0-2.746 7.557-7.016 9.343-2.53 1.058-5.414 1.258-8.654.572l-3.415-.727c-3.116-.666-2.188-2.769 1.221-2.769 3.344 0 9.992-2.214 14.31-4.764 1.544-.912 3.139-1.655 3.554-1.655ZM95.292 224.555c-1.725-.092-1.127 2.136 2.272 8.94 18.534 37.112 53.106 77.256 86.105 99.97 5.585 3.844 10.154 4.61 7.804 1.315-.324-.454-4.295-3.454-8.824-6.667-10.859-7.705-16.439-12.379-26.936-22.568-20.299-19.702-40.769-46.845-53.561-71.043-3.106-5.875-5.619-9.735-6.475-9.9a2.892 2.892 0 0 0-.387-.046l.002-.001Zm-20.26 103.281c-.602.049-.804.396-.804.99 0 .908 12.632 7.317 25.916 13.148 5.367 2.356 12.289 5.488 15.377 6.945 3.087 1.457 9.401 3.99 14.032 5.646 8.561 3.06 13.228 3.631 13.228 1.608 0-.213-.39-.519-1.051-.897-.01-.009-.02-.022-.031-.031a3.097 3.097 0 0 0-1.081-.557c-.016-.004-.031-.011-.047-.015-1.71-.799-4.352-1.805-7.819-2.97-11.43-3.84-30.267-11.705-46.207-19.304-6.978-3.326-10.19-4.671-11.513-4.563Z"></path></g><defs><clipPath id="astroicon:shirta"><path fill="#fff" d="M0 0h361v394H0z" transform="translate(.5)"></path></clipPath></defs></svg>